<?xml version="1.0" standalone="no"?>
<!DOCTYPE svg PUBLIC "-//W3C//DTD SVG 20010904//EN"
 "http://www.w3.org/TR/2001/REC-SVG-20010904/DTD/svg10.dtd">
<svg version="1.0" xmlns="http://www.w3.org/2000/svg"
 width="92.000000pt" height="92.000000pt" viewBox="0 0 92.000000 92.000000"
 preserveAspectRatio="xMidYMid meet">

<g transform="translate(0.000000,92.000000) scale(0.100000,-0.100000)"
fill="#000000" stroke="none">
<path d="M453 607 c-56 -57 -63 -68 -63 -104 0 -29 6 -46 25 -63 22 -20 25
-21 31 -6 3 9 1 30 -6 47 -11 27 -11 34 7 57 32 43 101 92 121 85 51 -18 57
-60 12 -99 -23 -21 -29 -34 -27 -60 l2 -33 39 37 c43 42 69 92 60 119 -20 61
-48 83 -106 83 -25 0 -44 -13 -95 -63z"/>
<path d="M474 516 c-4 -10 -2 -28 5 -42 16 -36 15 -40 -31 -90 -53 -58 -82
-70 -114 -49 -33 21 -30 55 6 90 23 22 30 37 28 62 l-2 33 -39 -37 c-22 -21
-46 -53 -54 -71 -28 -67 19 -132 98 -132 26 0 44 12 96 63 56 57 63 68 63 104
0 29 -6 46 -25 63 -22 21 -25 21 -31 6z"/>
</g>
</svg>
